<svg xmlns="http://www.w3.org/2000/svg" xmlns:xlink="http://www.w3.org/1999/xlink" xml:space="preserve" version="1.1" style="shape-rendering:geometricPrecision;text-rendering:geometricPrecision;image-rendering:optimizeQuality;" viewBox="0 0 682.3 948.8" x="0px" y="0px" fill-rule="evenodd" clip-rule="evenodd"><defs><style type="text/css">
   
    .fil0 {fill:gray;fill-rule:nonzero}
   
  </style></defs><g><path class="fil0" d="M488.55 0l131.64 131.65c0,66.15 0,132.3 0,198.45l62.11 323.83 -62.11 11.91 0 47.05 -245.33 0 -240.6 46.15 -8.86 -46.15 -63.3 0 0 -330.09 -62.1 -323.84 62.1 -11.91 0 -47.05c142.15,0 284.3,0 426.45,0zm-332.3 578.54l369.79 0 0 35.07 -369.79 0 0 -35.07zm0 -75.67l369.79 0 0 35.07 -369.79 0 0 -35.07zm0 -75.67l369.79 0 0 35.06 -369.79 0 0 -35.06zm0 -75.67l369.79 0 0 35.06 -369.79 0 0 -35.06zm0 -75.67l369.79 0 0 35.06 -369.79 0 0 -35.06zm463.94 237.13l0 117.77 21.79 -4.17 -21.79 -113.6zm-428.21 199.9l-31.5 0 1.12 5.83 30.38 -5.83zm-129.88 -512.99l0 -117.78 -21.79 4.19 21.79 113.59zm523.58 -37.6l-128.49 0 0 -127.79 -360.58 0 0 643.87c163.02,0 326.05,0 489.07,0l0 -516.08z"/></g><text x="0" y="774.04" fill="#000000" font-size="5px" font-weight="bold" font-family="'Helvetica Neue', Helvetica, Arial-Unicode, Arial, Sans-serif">Created by jokokerto</text><text x="0" y="779.04" fill="#000000" font-size="5px" font-weight="bold" font-family="'Helvetica Neue', Helvetica, Arial-Unicode, Arial, Sans-serif">from the Noun Project</text></svg>
